<svg width="29" height="29" viewBox="0 0 29 29" fill="none" xmlns="http://www.w3.org/2000/svg">
<path d="M25.579 15.921C25.6387 15.457 25.6834 14.993 25.6834 14.5C25.6834 14.007 25.6387 13.543 25.579 13.079L28.7244 10.6865C29.0076 10.469 29.0821 10.0775 28.9032 9.7585L25.9219 4.7415C25.7877 4.5095 25.5343 4.379 25.266 4.379C25.1765 4.379 25.0871 4.3935 25.0126 4.4225L21.3008 5.8725C20.5256 5.2925 19.6908 4.814 18.7815 4.4515L18.2151 0.609C18.1704 0.261 17.8573 0 17.4846 0H11.5219C11.1493 0 10.8362 0.261 10.7915 0.609L10.225 4.4515C9.31574 4.814 8.48096 5.307 7.7058 5.8725L3.99402 4.4225C3.90458 4.3935 3.81514 4.379 3.7257 4.379C3.47228 4.379 3.21887 4.5095 3.08471 4.7415L0.103351 9.7585C-0.090437 10.0775 -0.000996223 10.469 0.282232 10.6865L3.42756 13.079C3.36793 13.543 3.32321 14.0215 3.32321 14.5C3.32321 14.9785 3.36793 15.457 3.42756 15.921L0.282232 18.3135C-0.000996223 18.531 -0.0755303 18.9225 0.103351 19.2415L3.08471 24.2585C3.21887 24.4905 3.47228 24.621 3.7406 24.621C3.83004 24.621 3.91948 24.6065 3.99402 24.5775L7.7058 23.1275C8.48096 23.7075 9.31574 24.186 10.225 24.5485L10.7915 28.391C10.8362 28.739 11.1493 29 11.5219 29H17.4846C17.8573 29 18.1704 28.739 18.2151 28.391L18.7815 24.5485C19.6908 24.186 20.5256 23.693 21.3008 23.1275L25.0126 24.5775C25.102 24.6065 25.1914 24.621 25.2809 24.621C25.5343 24.621 25.7877 24.4905 25.9219 24.2585L28.9032 19.2415C29.0821 18.9225 29.0076 18.531 28.7244 18.3135L25.579 15.921ZM22.6275 13.4415C22.6871 13.891 22.702 14.1955 22.702 14.5C22.702 14.8045 22.6722 15.1235 22.6275 15.5585L22.4188 17.197L23.7455 18.212L25.3554 19.43L24.3119 21.1845L22.4188 20.445L20.8685 19.836L19.5269 20.822C18.8859 21.286 18.2747 21.634 17.6635 21.8805L16.0834 22.504L15.8449 24.1425L15.5468 26.1H13.4598L12.9381 22.504L11.358 21.8805C10.717 21.6195 10.1207 21.286 9.52443 20.851L8.16791 19.836L6.5878 20.4595L4.69464 21.199L3.65116 19.4445L5.26109 18.2265L6.5878 17.2115L6.3791 15.573C6.33438 15.1235 6.30457 14.79 6.30457 14.5C6.30457 14.21 6.33438 13.8765 6.3791 13.4415L6.5878 11.803L5.26109 10.788L3.65116 9.57L4.69464 7.8155L6.5878 8.555L8.1381 9.164L9.47971 8.178C10.1207 7.714 10.7319 7.366 11.3431 7.1195L12.9232 6.496L13.1617 4.8575L13.4598 2.9H15.5319L16.0536 6.496L17.6337 7.1195C18.2747 7.3805 18.871 7.714 19.4672 8.149L20.8238 9.164L22.4039 8.5405L24.297 7.801L25.3405 9.5555L23.7455 10.788L22.4188 11.803L22.6275 13.4415ZM14.5033 8.7C11.2089 8.7 8.54058 11.2955 8.54058 14.5C8.54058 17.7045 11.2089 20.3 14.5033 20.3C17.7977 20.3 20.466 17.7045 20.466 14.5C20.466 11.2955 17.7977 8.7 14.5033 8.7ZM14.5033 17.4C12.8635 17.4 11.5219 16.095 11.5219 14.5C11.5219 12.905 12.8635 11.6 14.5033 11.6C16.143 11.6 17.4846 12.905 17.4846 14.5C17.4846 16.095 16.143 17.4 14.5033 17.4Z" fill="black"/>
</svg>
