<svg width="44" height="44" viewBox="0 0 44 44" fill="none" xmlns="http://www.w3.org/2000/svg">
<path d="M16.1051 43.9933L44 27.8907L27.8949 0L0 16.1027L16.1051 43.9933Z" fill="#005FB8"/>
<path fill-rule="evenodd" clip-rule="evenodd" d="M9.52238 33.2021L0.943008 34.5523L15.7356 44L15.752 43.9905L9.52238 33.2021Z" fill="#005FB8"/>
<path fill-rule="evenodd" clip-rule="evenodd" d="M28.2539 0.0773533L28.276 0.0644531L43.0684 9.5121L34.482 10.8635L28.2539 0.0773533Z" fill="#005FB8"/>
<path d="M11.7244 25.9504C11.6422 25.9504 11.575 25.9243 11.5227 25.872C11.4704 25.8196 11.4442 25.7524 11.4442 25.6702V18.3836C11.4442 18.3014 11.4704 18.2341 11.5227 18.1818C11.575 18.1294 11.6422 18.1033 11.7244 18.1033H16.9708C17.053 18.1033 17.1203 18.1294 17.1726 18.1818C17.2249 18.2341 17.2511 18.3014 17.2511 18.3836V19.3364C17.2511 19.4112 17.2249 19.4747 17.1726 19.527C17.1203 19.5793 17.053 19.6055 16.9708 19.6055H13.2266V21.1749H14.9642C15.8311 21.1749 16.5112 21.3879 17.0044 21.8139C17.5052 22.2399 17.7555 22.8153 17.7555 23.5402C17.7555 23.8616 17.692 24.168 17.565 24.4595C17.4454 24.7509 17.2698 25.0088 17.0381 25.233C16.8064 25.4572 16.515 25.6328 16.1637 25.7599C15.8199 25.8869 15.4201 25.9504 14.9642 25.9504H11.7244ZM13.2266 24.6388H14.796C15.0352 24.6388 15.237 24.5865 15.4014 24.4819C15.5733 24.3773 15.7003 24.239 15.7825 24.0671C15.8722 23.8952 15.9171 23.7121 15.9171 23.5178C15.9171 23.2189 15.8199 22.9685 15.6256 22.7667C15.4388 22.565 15.1622 22.4641 14.796 22.4641H13.2266V24.6388ZM19.0483 25.9504C18.9661 25.9504 18.8988 25.9243 18.8465 25.872C18.7942 25.8122 18.7681 25.7449 18.7681 25.6702V18.3836C18.7681 18.3014 18.7942 18.2341 18.8465 18.1818C18.9063 18.1294 18.9736 18.1033 19.0483 18.1033H20.2702C20.3524 18.1033 20.4197 18.1294 20.472 18.1818C20.5243 18.2341 20.5505 18.3014 20.5505 18.3836V23.2264L23.992 18.3051C24.0294 18.2528 24.0742 18.2079 24.1265 18.1706C24.1863 18.1257 24.2611 18.1033 24.3507 18.1033H25.4493C25.5315 18.1033 25.5988 18.1294 25.6511 18.1818C25.7034 18.2341 25.7296 18.3014 25.7296 18.3836V25.6702C25.7296 25.7524 25.7034 25.8196 25.6511 25.872C25.5988 25.9243 25.5315 25.9504 25.4493 25.9504H24.2274C24.1527 25.9504 24.0854 25.9243 24.0256 25.872C23.9733 25.8196 23.9472 25.7524 23.9472 25.6702V20.9731L20.5056 25.7487C20.4832 25.7935 20.4458 25.8383 20.3935 25.8832C20.3412 25.928 20.2627 25.9504 20.1581 25.9504H19.0483ZM29.3903 25.9504C29.3082 25.9504 29.2409 25.9243 29.1885 25.872C29.1361 25.8196 29.11 25.7524 29.11 25.6702V19.6615H27.0698C26.9951 19.6615 26.9315 19.6354 26.8792 19.583C26.8269 19.5307 26.8007 19.4672 26.8007 19.3925V18.3836C26.8007 18.3014 26.8269 18.2341 26.8792 18.1818C26.9315 18.1294 26.9951 18.1033 27.0698 18.1033H32.9439C33.026 18.1033 33.0933 18.1294 33.1457 18.1818C33.1981 18.2341 33.2242 18.3014 33.2242 18.3836V19.3925C33.2242 19.4672 33.1981 19.5307 33.1457 19.583C33.0933 19.6354 33.026 19.6615 32.9439 19.6615H30.9149V25.6702C30.9149 25.7524 30.8888 25.8196 30.8364 25.872C30.784 25.9243 30.7167 25.9504 30.6346 25.9504H29.3903Z" fill="white"/>
</svg>
